<?xml version="1.0" encoding="iso-8859-1"?>
<!-- Generator: Adobe Illustrator 19.0.0, SVG Export Plug-In . SVG Version: 6.00 Build 0)  -->
<svg xmlns="http://www.w3.org/2000/svg" xmlns:xlink="http://www.w3.org/1999/xlink" version="1.1" id="Layer_1" x="0px" y="0px" viewBox="0 0 512 512" style="enable-background:new 0 0 512 512;" xml:space="preserve" width="512px" height="512px">
<g>
	<g>
		<g>
			<path d="M213.107,288.282c-9.325,0-16.914,7.699-16.914,17.207c0,9.506,7.589,17.213,16.914,17.213     c9.337,0,16.924-7.707,16.924-17.213C230.031,295.982,222.444,288.282,213.107,288.282z" fill="#ff647a"/>
			<path d="M298.766,288.148c-9.416,0-17.053,7.764-17.053,17.341c0,9.577,7.638,17.341,17.053,17.341     c9.404,0,17.042-7.764,17.042-17.341C315.808,295.912,308.17,288.148,298.766,288.148z" fill="#ff647a"/>
			<path d="M226.276,428.704c-8.05,0-14.601,6.646-14.601,14.854c0,8.206,6.551,14.858,14.601,14.858     c8.06,0,14.609-6.652,14.609-14.858C240.886,435.349,234.336,428.704,226.276,428.704z" fill="#ff647a"/>
			<path d="M285.614,428.588c-8.128,0-14.721,6.701-14.721,14.969c0,8.267,6.594,14.969,14.721,14.969     c8.118,0,14.711-6.701,14.711-14.969S293.733,428.588,285.614,428.588z" fill="#ff647a"/>
			<path d="M466.251,136.532c-1.398-0.711-34.655-17.278-71.557-4.298c-20.423,7.186-37.578,21.645-51.203,43.089     c-6.769-5.262-14.371-9.717-22.8-13.336c-11.844-43.204-42.235-111.956-49.485-128.109L256,0l-15.206,33.878     c-7.25,16.154-37.642,84.906-49.485,128.11c-8.428,3.619-16.029,8.074-22.797,13.335c-13.625-21.445-30.78-35.905-51.203-43.09     c-36.9-12.982-70.16,3.587-71.557,4.298l-9.893,5.037l0.834,11.07c0.079,1.048,2.098,25.978,16.044,52.139     c11.895,22.313,34.609,49.422,76.574,58.873c-0.24,9.081,0.168,18.642,1.252,28.678c3.503,32.445,11.104,51.682,19.903,73.957     c3.367,8.523,6.848,17.335,10.37,27.622c1.643,4.798,2.222,20.453,1.731,32.06l-0.016,0.714c0,40.577,20.084,61.15,36.932,71.266     C218.833,509.562,240.897,512,256,512c15.103,0,37.167-2.438,56.515-14.053c16.848-10.116,36.932-30.689,36.932-71.266     l-0.016-0.714c-0.497-11.589,0.08-27.238,1.731-32.06c3.523-10.288,7.005-19.1,10.37-27.622     c8.799-22.275,16.398-41.512,19.903-73.957c1.083-10.036,1.492-19.596,1.252-28.678c41.965-9.451,64.679-36.561,76.574-58.873     c13.947-26.161,15.965-51.09,16.044-52.139l0.834-11.07L466.251,136.532z M141.581,208.61     c-3.299,6.728-5.927,14.006-7.906,21.794c-22.415-5.859-39.54-19.385-51.015-40.368c-5.522-10.099-8.707-20.11-10.51-27.577     c8.607-2.048,21.155-3.332,34.095,1.22c15.504,5.455,28.616,18.254,39.068,38.073C144,203.975,142.74,206.247,141.581,208.61z      M256.001,82.666c3.505,8.378,7.009,16.951,10.383,25.433c-3.002,0.172-6.448,0.28-10.396,0.28     c-3.931,0-7.369-0.107-10.368-0.278C248.992,99.619,252.495,91.046,256.001,82.666z M233.288,140.453     c5.889,0.74,13.353,1.261,22.699,1.261c9.365,0,16.835-0.524,22.723-1.27c2.293,6.346,4.379,12.37,6.188,17.923     c-6.375,1.078-15.756,2.051-28.901,2.051c-13.1,0-22.49-0.966-28.896-2.042C228.91,152.823,230.996,146.8,233.288,140.453z      M255.997,193.753c15.683,0,27.403-1.206,36.016-2.761c-1.312,19.563-16.957,35.063-36.012,35.063     c-19.052,0-34.693-15.494-36.011-35.05C228.612,192.554,240.334,193.753,255.997,193.753z M295.358,469.366     c-13.477,8.091-30.443,9.299-39.357,9.299c-8.914,0-25.88-1.208-39.357-9.299c-13.891-8.339-20.682-22.194-20.755-42.353     c0.033-0.831,0.077-2.057,0.113-3.568c13.889-12.214,36.232-19.626,60-19.626c23.766,0,46.111,7.412,60,19.626     c0.037,1.511,0.079,2.736,0.113,3.567C316.04,447.171,309.249,461.027,295.358,469.366z M348.297,288.75     c-3.02,27.965-9.527,44.436-17.764,65.288c-3.506,8.875-7.131,18.053-10.905,29.072c-0.245,0.714-0.471,1.471-0.686,2.253     c-17.957-9.545-39.878-14.878-62.941-14.878s-44.984,5.333-62.941,14.878c-0.214-0.782-0.441-1.539-0.687-2.255     c-3.773-11.018-7.398-20.196-10.904-29.071c-8.238-20.852-14.744-37.322-17.764-65.288c-4.413-40.873,3.539-69.353,24.242-86.231     c6.443,32.407,34.508,56.871,68.054,56.871c33.547,0,61.612-24.465,68.055-56.873C344.757,219.396,352.71,247.876,348.297,288.75     z M429.849,189.097c-11.473,21.521-28.769,35.364-51.523,41.309c-1.979-7.789-4.608-15.068-7.907-21.796     c-1.159-2.363-2.419-4.635-3.73-6.858c10.376-19.673,23.373-32.431,38.727-37.95c13.018-4.68,25.734-3.383,34.435-1.319     C438.102,169.713,435.06,179.321,429.849,189.097z" fill="#ff647a"/>
		</g>
	</g>
</g>
<g>
</g>
<g>
</g>
<g>
</g>
<g>
</g>
<g>
</g>
<g>
</g>
<g>
</g>
<g>
</g>
<g>
</g>
<g>
</g>
<g>
</g>
<g>
</g>
<g>
</g>
<g>
</g>
<g>
</g>
</svg>
